<svg width="22" height="16" viewBox="0 0 22 16" xmlns="http://www.w3.org/2000/svg" role="img" aria-label="Iran">
  <rect width="22" height="16" rx="2" fill="#fff"/>
  <rect width="22" height="5.33" rx="2" fill="#239F40"/>
  <rect y="10.67" width="22" height="5.33" rx="2" fill="#DA0000"/>
  <rect y="4.6" width="22" height="6.8" fill="#fff"/>
  <g fill="#DA0000">
    <path d="M11 6.6c-.5 0-.9.4-.9.9 0 .3.2.6.5.8-.1-.1-.1-.2-.1-.4 0-.3.2-.5.5-.5s.5.2.5.5c0 .2 0 .3-.1.4.3-.2.5-.5.5-.8 0-.5-.4-.9-.9-.9z"/>
    <rect x="8.3" y="7" width="0.7" height="2" rx="0.35"/>
    <rect x="13" y="7" width="0.7" height="2" rx="0.35"/>
  </g>
</svg>
