<svg width="160" height="44" viewBox="0 0 160 44" fill="none" xmlns="http://www.w3.org/2000/svg" role="img" aria-label="بانک پاسارگاد">
  <defs>
    <linearGradient id="pg" x1="0" y1="0" x2="0" y2="44" gradientUnits="userSpaceOnUse">
      <stop stop-color="#F4CE5B"/><stop offset="1" stop-color="#C9971B"/>
    </linearGradient>
  </defs>
  <g fill="url(#pg)" transform="translate(126 4)">
    <!-- lotus crown band -->
    <rect x="0" y="0" width="30" height="3" rx="1.5"/>
    <g>
      <!-- five lotus palmettes -->
      <path d="M3 4c0 3 1.4 5 3 5s3-2 3-5h-1.3c0 2-.8 3.4-1.7 3.4S4.6 6 4.6 4z"/>
      <path d="M9 4c0 3 1.4 5 3 5s3-2 3-5h-1.3c0 2-.8 3.4-1.7 3.4S10.6 6 10.6 4z"/>
      <path d="M15 4c0 3 1.4 5 3 5s3-2 3-5h-1.3c0 2-.8 3.4-1.7 3.4S16.6 6 16.6 4z"/>
      <path d="M21 4c0 3 1.4 5 3 5s3-2 3-5h-1.3c0 2-.8 3.4-1.7 3.4S22.6 6 22.6 4z"/>
    </g>
    <!-- rhyton vessel body -->
    <path d="M4 11h22l-3 9c-1 3-4 5-8 5s-7-2-8-5z"/>
    <!-- wing arcs -->
    <path d="M2 14c-3 .4-6 3-7 7 3-2 6-2.6 9-1.6z" opacity="0.9"/>
    <path d="M1 19c-2.6 .8-4.6 3-5.4 6 2.4-1.8 4.8-2.4 7.4-1.6z" opacity="0.8"/>
    <!-- lion head -->
    <circle cx="26" cy="26" r="4.4"/>
    <path d="M30 26c2 0 4 1 5 3-1.6-.4-3-.2-4.4.6z"/>
  </g>
  <text x="116" y="22" text-anchor="end" font-family="Vazirmatn, Tahoma, sans-serif" font-size="14" font-weight="800" fill="#F2C94C">بانک پاسارگاد</text>
  <text x="116" y="36" text-anchor="end" font-family="Vazirmatn, Tahoma, sans-serif" font-size="8" font-weight="500" fill="#B98E2E" letter-spacing="1.5">PASARGAD BANK</text>
</svg>
